<svg xmlns="http://www.w3.org/2000/svg" xmlns:xlink="http://www.w3.org/1999/xlink" contentStyleType="text/css" data-diagram-type="CLASS" height="492px" preserveAspectRatio="none" style="width:1385px;height:492px;background:#FFFFFF;" version="1.1" viewBox="0 0 1385 492" width="1385px" zoomAndPan="magnify"><defs/><g><!--class DecoyDuck--><g id="elem_DecoyDuck"><rect codeLine="1" fill="#F1F1F1" height="96.8906" id="DecoyDuck" rx="2.5" ry="2.5" style="stroke:#181818;stroke-width:0.5;" width="141.9512" x="988" y="207.63"/><ellipse cx="1016.7483" cy="223.63" fill="#ADD1B2" rx="11" ry="11" style="stroke:#181818;stroke-width:1;"/><path d="M1019.717,229.2706 Q1019.1389,229.5675 1018.4983,229.7081 Q1017.8577,229.8644 1017.1545,229.8644 Q1014.6545,229.8644 1013.3264,228.2238 Q1012.0139,226.5675 1012.0139,223.4425 Q1012.0139,220.3175 1013.3264,218.6613 Q1014.6545,217.005 1017.1545,217.005 Q1017.8577,217.005 1018.4983,217.1613 Q1019.1545,217.3175 1019.717,217.6144 L1019.717,220.3331 Q1019.092,219.755 1018.4983,219.4894 Q1017.9045,219.2081 1017.2795,219.2081 Q1015.9358,219.2081 1015.2483,220.2863 Q1014.5608,221.3488 1014.5608,223.4425 Q1014.5608,225.5363 1015.2483,226.6144 Q1015.9358,227.6769 1017.2795,227.6769 Q1017.9045,227.6769 1018.4983,227.4113 Q1019.092,227.13 1019.717,226.5519 L1019.717,229.2706 Z " fill="#000000"/><text fill="#000000" font-family="sans-serif" font-size="14" lengthAdjust="spacing" textLength="79.3994" x="1033.8035" y="228.4767">DecoyDuck</text><line style="stroke:#181818;stroke-width:0.5;" x1="989" x2="1128.9512" y1="239.63" y2="239.63"/><rect fill="#FFFFFF" fill-opacity="0.00000" height="6" style="stroke:#C82930;stroke-width:1;" width="6" x="996" y="250.2784"/><text fill="#000000" font-family="sans-serif" font-size="14" lengthAdjust="spacing" textLength="115.9512" x="1008" y="256.6251">toString : String;</text><line style="stroke:#181818;stroke-width:0.5;" x1="989" x2="1128.9512" y1="263.9269" y2="263.9269"/><rect fill="#F24D5C" height="6" style="stroke:#C82930;stroke-width:1;" width="6" x="996" y="274.5753"/><text fill="#000000" font-family="sans-serif" font-size="14" lengthAdjust="spacing" textLength="79.7207" x="1008" y="280.922">&lt;init&gt; : ()V</text><rect fill="#F24D5C" height="6" style="stroke:#C82930;stroke-width:1;" width="6" x="996" y="290.8722"/><text fill="#000000" font-family="sans-serif" font-size="14" lengthAdjust="spacing" textLength="76.2617" x="1008" y="297.2189">quack : ()V</text></g><!--class Quackable--><g id="elem_Quackable"><rect codeLine="46" fill="#0000FF" height="76.5938" id="Quackable" rx="2.5" ry="2.5" style="stroke:#181818;stroke-width:0.5;" width="168.4521" x="638.75" y="399.12"/><ellipse cx="653.75" cy="415.12" fill="#B4A7E5" rx="11" ry="11" style="stroke:#181818;stroke-width:1;"/><path d="M649.6719,410.8856 L649.6719,408.7294 L657.0625,408.7294 L657.0625,410.8856 L654.5938,410.8856 L654.5938,418.9638 L657.0625,418.9638 L657.0625,421.12 L649.6719,421.12 L649.6719,418.9638 L652.1406,418.9638 L652.1406,410.8856 L649.6719,410.8856 Z " fill="#000000"/><text fill="#000000" font-family="sans-serif" font-size="14" font-style="italic" lengthAdjust="spacing" textLength="74.2451" x="667.75" y="419.9667">Quackable</text><rect fill="#FFFFFF" height="15.9688" style="stroke:#181818;stroke-width:1;stroke-dasharray:2.0,2.0;" width="60.207" x="749.9951" y="396.12"/><text fill="#000000" font-family="sans-serif" font-size="12" font-style="italic" lengthAdjust="spacing" textLength="58.207" x="750.9951" y="408.2587">decorator</text><line style="stroke:#181818;stroke-width:0.5;" x1="639.75" x2="806.2021" y1="431.12" y2="431.12"/><rect fill="#F24D5C" height="6" style="stroke:#C82930;stroke-width:1;" width="6" x="646.75" y="462.0653"/><text fill="#000000" font-family="sans-serif" font-size="14" lengthAdjust="spacing" textLength="76.2617" x="658.75" y="468.412">quack : ()V</text><line style="stroke:#181818;stroke-width:1;stroke-dasharray:1.0,2.0;" x1="639.75" x2="666.5898" y1="447.2684" y2="447.2684"/><text fill="#000000" font-family="sans-serif" font-size="14" lengthAdjust="spacing" textLength="112.7725" x="666.5898" y="451.6151">Table Decorator</text><line style="stroke:#181818;stroke-width:1;stroke-dasharray:1.0,2.0;" x1="779.3623" x2="806.2021" y1="447.2684" y2="447.2684"/></g><!--class DuckCall--><g id="elem_DuckCall"><rect codeLine="7" fill="#F1F1F1" height="96.8906" id="DuckCall" rx="2.5" ry="2.5" style="stroke:#181818;stroke-width:0.5;" width="141.9512" x="740" y="207.63"/><ellipse cx="776.7617" cy="223.63" fill="#ADD1B2" rx="11" ry="11" style="stroke:#181818;stroke-width:1;"/><path d="M779.7305,229.2706 Q779.1523,229.5675 778.5117,229.7081 Q777.8711,229.8644 777.168,229.8644 Q774.668,229.8644 773.3398,228.2238 Q772.0273,226.5675 772.0273,223.4425 Q772.0273,220.3175 773.3398,218.6613 Q774.668,217.005 777.168,217.005 Q777.8711,217.005 778.5117,217.1613 Q779.168,217.3175 779.7305,217.6144 L779.7305,220.3331 Q779.1055,219.755 778.5117,219.4894 Q777.918,219.2081 777.293,219.2081 Q775.9492,219.2081 775.2617,220.2863 Q774.5742,221.3488 774.5742,223.4425 Q774.5742,225.5363 775.2617,226.6144 Q775.9492,227.6769 777.293,227.6769 Q777.918,227.6769 778.5117,227.4113 Q779.1055,227.13 779.7305,226.5519 L779.7305,229.2706 Z " fill="#000000"/><text fill="#000000" font-family="sans-serif" font-size="14" lengthAdjust="spacing" textLength="61.5918" x="795.5977" y="228.4767">DuckCall</text><line style="stroke:#181818;stroke-width:0.5;" x1="741" x2="880.9512" y1="239.63" y2="239.63"/><rect fill="#FFFFFF" fill-opacity="0.00000" height="6" style="stroke:#C82930;stroke-width:1;" width="6" x="748" y="250.2784"/><text fill="#000000" font-family="sans-serif" font-size="14" lengthAdjust="spacing" textLength="115.9512" x="760" y="256.6251">toString : String;</text><line style="stroke:#181818;stroke-width:0.5;" x1="741" x2="880.9512" y1="263.9269" y2="263.9269"/><rect fill="#F24D5C" height="6" style="stroke:#C82930;stroke-width:1;" width="6" x="748" y="274.5753"/><text fill="#000000" font-family="sans-serif" font-size="14" lengthAdjust="spacing" textLength="79.7207" x="760" y="280.922">&lt;init&gt; : ()V</text><rect fill="#F24D5C" height="6" style="stroke:#C82930;stroke-width:1;" width="6" x="748" y="290.8722"/><text fill="#000000" font-family="sans-serif" font-size="14" lengthAdjust="spacing" textLength="76.2617" x="760" y="297.2189">quack : ()V</text></g><!--class DuckSimulator--><g id="elem_DuckSimulator"><rect codeLine="13" fill="#FF0000" height="113.1875" id="DuckSimulator" rx="2.5" ry="2.5" style="stroke:#181818;stroke-width:0.5;" width="252.96" x="595.5" y="10"/><ellipse cx="610.5" cy="26" fill="#ADD1B2" rx="11" ry="11" style="stroke:#181818;stroke-width:1;"/><path d="M613.4688,31.6406 Q612.8906,31.9375 612.25,32.0781 Q611.6094,32.2344 610.9063,32.2344 Q608.4063,32.2344 607.0781,30.5938 Q605.7656,28.9375 605.7656,25.8125 Q605.7656,22.6875 607.0781,21.0313 Q608.4063,19.375 610.9063,19.375 Q611.6094,19.375 612.25,19.5313 Q612.9063,19.6875 613.4688,19.9844 L613.4688,22.7031 Q612.8438,22.125 612.25,21.8594 Q611.6563,21.5781 611.0313,21.5781 Q609.6875,21.5781 609,22.6563 Q608.3125,23.7188 608.3125,25.8125 Q608.3125,27.9063 609,28.9844 Q609.6875,30.0469 611.0313,30.0469 Q611.6563,30.0469 612.25,29.7813 Q612.8438,29.5 613.4688,28.9219 L613.4688,31.6406 Z " fill="#000000"/><text fill="#000000" font-family="sans-serif" font-size="14" lengthAdjust="spacing" textLength="103.0244" x="624.5" y="30.8467">DuckSimulator</text><rect fill="#FFFFFF" height="15.9688" style="stroke:#181818;stroke-width:1;stroke-dasharray:2.0,2.0;" width="115.9355" x="735.5244" y="7"/><text fill="#000000" font-family="sans-serif" font-size="12" font-style="italic" lengthAdjust="spacing" textLength="113.9355" x="736.5244" y="19.1387">dependency abuse</text><line style="stroke:#181818;stroke-width:0.5;" x1="596.5" x2="847.46" y1="42" y2="42"/><line style="stroke:#181818;stroke-width:0.5;" x1="596.5" x2="847.46" y1="50" y2="50"/><rect fill="#F24D5C" height="6" style="stroke:#C82930;stroke-width:1;" width="6" x="603.5" y="60.6484"/><text fill="#000000" font-family="sans-serif" font-size="14" lengthAdjust="spacing" textLength="79.7207" x="615.5" y="66.9951">&lt;init&gt; : ()V</text><rect fill="#F24D5C" height="6" style="stroke:#C82930;stroke-width:1;" width="6" x="603.5" y="76.9453"/><text fill="#000000" font-family="sans-serif" font-size="14" lengthAdjust="spacing" textLength="110.1338" x="615.5" y="83.292">main : String;)V</text><rect fill="#F24D5C" height="6" style="stroke:#C82930;stroke-width:1;" width="6" x="603.5" y="93.2422"/><text fill="#000000" font-family="sans-serif" font-size="14" lengthAdjust="spacing" textLength="94.3838" x="615.5" y="99.5889">simulate : ()V</text><rect fill="#F24D5C" height="6" style="stroke:#C82930;stroke-width:1;" width="6" x="603.5" y="109.5391"/><text fill="#000000" font-family="sans-serif" font-size="14" lengthAdjust="spacing" textLength="167.8838" x="615.5" y="115.8857">simulate : Quackable;)V</text></g><!--class MallardDuck--><g id="elem_MallardDuck"><rect codeLine="40" fill="#F1F1F1" height="96.8906" id="MallardDuck" rx="2.5" ry="2.5" style="stroke:#181818;stroke-width:0.5;" width="141.9512" x="563" y="207.63"/><ellipse cx="588.2753" cy="223.63" fill="#ADD1B2" rx="11" ry="11" style="stroke:#181818;stroke-width:1;"/><path d="M591.244,229.2706 Q590.6659,229.5675 590.0253,229.7081 Q589.3847,229.8644 588.6815,229.8644 Q586.1815,229.8644 584.8534,228.2238 Q583.5409,226.5675 583.5409,223.4425 Q583.5409,220.3175 584.8534,218.6613 Q586.1815,217.005 588.6815,217.005 Q589.3847,217.005 590.0253,217.1613 Q590.6815,217.3175 591.244,217.6144 L591.244,220.3331 Q590.619,219.755 590.0253,219.4894 Q589.4315,219.2081 588.8065,219.2081 Q587.4628,219.2081 586.7753,220.2863 Q586.0878,221.3488 586.0878,223.4425 Q586.0878,225.5363 586.7753,226.6144 Q587.4628,227.6769 588.8065,227.6769 Q589.4315,227.6769 590.0253,227.4113 Q590.619,227.13 591.244,226.5519 L591.244,229.2706 Z " fill="#000000"/><text fill="#000000" font-family="sans-serif" font-size="14" lengthAdjust="spacing" textLength="87.1172" x="604.5587" y="228.4767">MallardDuck</text><line style="stroke:#181818;stroke-width:0.5;" x1="564" x2="703.9512" y1="239.63" y2="239.63"/><rect fill="#FFFFFF" fill-opacity="0.00000" height="6" style="stroke:#C82930;stroke-width:1;" width="6" x="571" y="250.2784"/><text fill="#000000" font-family="sans-serif" font-size="14" lengthAdjust="spacing" textLength="115.9512" x="583" y="256.6251">toString : String;</text><line style="stroke:#181818;stroke-width:0.5;" x1="564" x2="703.9512" y1="263.9269" y2="263.9269"/><rect fill="#F24D5C" height="6" style="stroke:#C82930;stroke-width:1;" width="6" x="571" y="274.5753"/><text fill="#000000" font-family="sans-serif" font-size="14" lengthAdjust="spacing" textLength="79.7207" x="583" y="280.922">&lt;init&gt; : ()V</text><rect fill="#F24D5C" height="6" style="stroke:#C82930;stroke-width:1;" width="6" x="571" y="290.8722"/><text fill="#000000" font-family="sans-serif" font-size="14" lengthAdjust="spacing" textLength="76.2617" x="583" y="297.2189">quack : ()V</text></g><!--class GooseAdapter--><g id="elem_GooseAdapter"><rect codeLine="32" fill="#F1F1F1" height="113.1875" id="GooseAdapter" rx="2.5" ry="2.5" style="stroke:#181818;stroke-width:0.5;" width="148.8623" x="1164.54" y="199.48"/><ellipse cx="1187.2744" cy="215.48" fill="#ADD1B2" rx="11" ry="11" style="stroke:#181818;stroke-width:1;"/><path d="M1190.2431,221.1206 Q1189.665,221.4175 1189.0244,221.5581 Q1188.3838,221.7144 1187.6806,221.7144 Q1185.1806,221.7144 1183.8525,220.0738 Q1182.54,218.4175 1182.54,215.2925 Q1182.54,212.1675 1183.8525,210.5113 Q1185.1806,208.855 1187.6806,208.855 Q1188.3838,208.855 1189.0244,209.0113 Q1189.6806,209.1675 1190.2431,209.4644 L1190.2431,212.1831 Q1189.6181,211.605 1189.0244,211.3394 Q1188.4306,211.0581 1187.8056,211.0581 Q1186.4619,211.0581 1185.7744,212.1363 Q1185.0869,213.1988 1185.0869,215.2925 Q1185.0869,217.3863 1185.7744,218.4644 Q1186.4619,219.5269 1187.8056,219.5269 Q1188.4306,219.5269 1189.0244,219.2613 Q1189.6181,218.98 1190.2431,218.4019 L1190.2431,221.1206 Z " fill="#000000"/><text fill="#000000" font-family="sans-serif" font-size="14" lengthAdjust="spacing" textLength="99.6748" x="1202.9931" y="220.3267">GooseAdapter</text><line style="stroke:#181818;stroke-width:0.5;" x1="1165.54" x2="1312.4023" y1="231.48" y2="231.48"/><rect fill="#FFFFFF" fill-opacity="0.00000" height="6" style="stroke:#C82930;stroke-width:1;" width="6" x="1172.54" y="242.1284"/><text fill="#000000" font-family="sans-serif" font-size="14" lengthAdjust="spacing" textLength="104.1455" x="1184.54" y="248.4751">goose : Goose;</text><rect fill="#FFFFFF" fill-opacity="0.00000" height="6" style="stroke:#C82930;stroke-width:1;" width="6" x="1172.54" y="258.4253"/><text fill="#000000" font-family="sans-serif" font-size="14" lengthAdjust="spacing" textLength="115.9512" x="1184.54" y="264.772">toString : String;</text><line style="stroke:#181818;stroke-width:0.5;" x1="1165.54" x2="1312.4023" y1="272.0738" y2="272.0738"/><rect fill="#F24D5C" height="6" style="stroke:#C82930;stroke-width:1;" width="6" x="1172.54" y="282.7222"/><text fill="#000000" font-family="sans-serif" font-size="14" lengthAdjust="spacing" textLength="122.8623" x="1184.54" y="289.0689">&lt;init&gt; : Goose;)V</text><rect fill="#F24D5C" height="6" style="stroke:#C82930;stroke-width:1;" width="6" x="1172.54" y="299.0191"/><text fill="#000000" font-family="sans-serif" font-size="14" lengthAdjust="spacing" textLength="76.2617" x="1184.54" y="305.3657">quack : ()V</text></g><!--class RedheadDuck--><g id="elem_RedheadDuck"><rect codeLine="59" fill="#F1F1F1" height="80.5938" id="RedheadDuck" rx="2.5" ry="2.5" style="stroke:#181818;stroke-width:0.5;" width="129.6377" x="184.16" y="215.78"/><ellipse cx="199.16" cy="231.78" fill="#ADD1B2" rx="11" ry="11" style="stroke:#181818;stroke-width:1;"/><path d="M202.1288,237.4206 Q201.5506,237.7175 200.91,237.8581 Q200.2694,238.0144 199.5663,238.0144 Q197.0663,238.0144 195.7381,236.3738 Q194.4256,234.7175 194.4256,231.5925 Q194.4256,228.4675 195.7381,226.8113 Q197.0663,225.155 199.5663,225.155 Q200.2694,225.155 200.91,225.3113 Q201.5663,225.4675 202.1288,225.7644 L202.1288,228.4831 Q201.5038,227.905 200.91,227.6394 Q200.3163,227.3581 199.6913,227.3581 Q198.3475,227.3581 197.66,228.4363 Q196.9725,229.4988 196.9725,231.5925 Q196.9725,233.6863 197.66,234.7644 Q198.3475,235.8269 199.6913,235.8269 Q200.3163,235.8269 200.91,235.5613 Q201.5038,235.28 202.1288,234.7019 L202.1288,237.4206 Z " fill="#000000"/><text fill="#000000" font-family="sans-serif" font-size="14" lengthAdjust="spacing" textLength="97.6377" x="213.16" y="236.6267">RedheadDuck</text><line style="stroke:#181818;stroke-width:0.5;" x1="185.16" x2="312.7977" y1="247.78" y2="247.78"/><line style="stroke:#181818;stroke-width:0.5;" x1="185.16" x2="312.7977" y1="255.78" y2="255.78"/><rect fill="#F24D5C" height="6" style="stroke:#C82930;stroke-width:1;" width="6" x="192.16" y="266.4284"/><text fill="#000000" font-family="sans-serif" font-size="14" lengthAdjust="spacing" textLength="79.7207" x="204.16" y="272.7751">&lt;init&gt; : ()V</text><rect fill="#F24D5C" height="6" style="stroke:#C82930;stroke-width:1;" width="6" x="192.16" y="282.7253"/><text fill="#000000" font-family="sans-serif" font-size="14" lengthAdjust="spacing" textLength="76.2617" x="204.16" y="289.072">quack : ()V</text></g><!--class Goose--><g id="elem_Goose"><rect codeLine="27" fill="#F1F1F1" height="96.8906" id="Goose" rx="2.5" ry="2.5" style="stroke:#181818;stroke-width:0.5;" width="141.9512" x="1231" y="388.97"/><ellipse cx="1275.7822" cy="404.97" fill="#ADD1B2" rx="11" ry="11" style="stroke:#181818;stroke-width:1;"/><path d="M1278.751,410.6106 Q1278.1729,410.9075 1277.5322,411.0481 Q1276.8916,411.2044 1276.1885,411.2044 Q1273.6885,411.2044 1272.3604,409.5638 Q1271.0479,407.9075 1271.0479,404.7825 Q1271.0479,401.6575 1272.3604,400.0013 Q1273.6885,398.345 1276.1885,398.345 Q1276.8916,398.345 1277.5322,398.5013 Q1278.1885,398.6575 1278.751,398.9544 L1278.751,401.6731 Q1278.126,401.095 1277.5322,400.8294 Q1276.9385,400.5481 1276.3135,400.5481 Q1274.9697,400.5481 1274.2822,401.6263 Q1273.5947,402.6888 1273.5947,404.7825 Q1273.5947,406.8763 1274.2822,407.9544 Q1274.9697,409.0169 1276.3135,409.0169 Q1276.9385,409.0169 1277.5322,408.7513 Q1278.126,408.47 1278.751,407.8919 L1278.751,410.6106 Z " fill="#000000"/><text fill="#000000" font-family="sans-serif" font-size="14" lengthAdjust="spacing" textLength="43.8867" x="1296.2822" y="409.8167">Goose</text><line style="stroke:#181818;stroke-width:0.5;" x1="1232" x2="1371.9512" y1="420.97" y2="420.97"/><rect fill="#FFFFFF" fill-opacity="0.00000" height="6" style="stroke:#C82930;stroke-width:1;" width="6" x="1239" y="431.6184"/><text fill="#000000" font-family="sans-serif" font-size="14" lengthAdjust="spacing" textLength="115.9512" x="1251" y="437.9651">toString : String;</text><line style="stroke:#181818;stroke-width:0.5;" x1="1232" x2="1371.9512" y1="445.2669" y2="445.2669"/><rect fill="#F24D5C" height="6" style="stroke:#C82930;stroke-width:1;" width="6" x="1239" y="455.9153"/><text fill="#000000" font-family="sans-serif" font-size="14" lengthAdjust="spacing" textLength="79.7207" x="1251" y="462.262">&lt;init&gt; : ()V</text><rect fill="#F24D5C" height="6" style="stroke:#C82930;stroke-width:1;" width="6" x="1239" y="472.2122"/><text fill="#000000" font-family="sans-serif" font-size="14" lengthAdjust="spacing" textLength="68.5371" x="1251" y="478.5589">honk : ()V</text></g><!--class QuackCounter--><g id="elem_QuackCounter"><rect codeLine="50" fill="#F1F1F1" height="145.7813" id="QuackCounter" rx="2.5" ry="2.5" style="stroke:#181818;stroke-width:0.5;" width="179.2207" x="348.37" y="183.19"/><ellipse cx="384.5196" cy="199.19" fill="#ADD1B2" rx="11" ry="11" style="stroke:#181818;stroke-width:1;"/><path d="M387.4883,204.8306 Q386.9102,205.1275 386.2696,205.2681 Q385.6289,205.4244 384.9258,205.4244 Q382.4258,205.4244 381.0977,203.7838 Q379.7852,202.1275 379.7852,199.0025 Q379.7852,195.8775 381.0977,194.2213 Q382.4258,192.565 384.9258,192.565 Q385.6289,192.565 386.2696,192.7213 Q386.9258,192.8775 387.4883,193.1744 L387.4883,195.8931 Q386.8633,195.315 386.2696,195.0494 Q385.6758,194.7681 385.0508,194.7681 Q383.7071,194.7681 383.0196,195.8463 Q382.3321,196.9088 382.3321,199.0025 Q382.3321,201.0963 383.0196,202.1744 Q383.7071,203.2369 385.0508,203.2369 Q385.6758,203.2369 386.2696,202.9713 Q386.8633,202.69 387.4883,202.1119 L387.4883,204.8306 Z " fill="#000000"/><text fill="#000000" font-family="sans-serif" font-size="14" lengthAdjust="spacing" textLength="100.2217" x="403.2195" y="204.0367">QuackCounter</text><line style="stroke:#181818;stroke-width:0.5;" x1="349.37" x2="526.5907" y1="215.19" y2="215.19"/><rect fill="#FFFFFF" fill-opacity="0.00000" height="6" style="stroke:#C82930;stroke-width:1;" width="6" x="356.37" y="225.8384"/><text fill="#000000" font-family="sans-serif" font-size="14" lengthAdjust="spacing" textLength="126.1436" x="368.37" y="232.1851">duck : Quackable;</text><rect fill="#FFFFFF" fill-opacity="0.00000" height="6" style="stroke:#C82930;stroke-width:1;" width="6" x="356.37" y="242.1353"/><text fill="#000000" font-family="sans-serif" font-size="14" lengthAdjust="spacing" textLength="139.9043" x="368.37" y="248.482">numberOfQuacks : I</text><rect fill="#FFFFFF" fill-opacity="0.00000" height="6" style="stroke:#C82930;stroke-width:1;" width="6" x="356.37" y="258.4322"/><text fill="#000000" font-family="sans-serif" font-size="14" lengthAdjust="spacing" textLength="115.9512" x="368.37" y="264.7789">toString : String;</text><line style="stroke:#181818;stroke-width:0.5;" x1="349.37" x2="526.5907" y1="272.0806" y2="272.0806"/><rect fill="#F24D5C" height="6" style="stroke:#C82930;stroke-width:1;" width="6" x="356.37" y="282.7291"/><text fill="#000000" font-family="sans-serif" font-size="14" lengthAdjust="spacing" textLength="153.2207" x="368.37" y="289.0757">&lt;init&gt; : Quackable;)V</text><rect fill="#F24D5C" height="6" style="stroke:#C82930;stroke-width:1;" width="6" x="356.37" y="299.0259"/><text fill="#000000" font-family="sans-serif" font-size="14" lengthAdjust="spacing" textLength="76.2617" x="368.37" y="305.3726">quack : ()V</text><rect fill="#F24D5C" height="6" style="stroke:#C82930;stroke-width:1;" width="6" x="356.37" y="315.3228"/><text fill="#000000" font-family="sans-serif" font-size="14" lengthAdjust="spacing" textLength="103.2295" x="368.37" y="321.6695">getQuacks : ()I</text></g><!--class RubberDuck--><g id="elem_RubberDuck"><rect codeLine="64" fill="#F1F1F1" height="96.8906" id="RubberDuck" rx="2.5" ry="2.5" style="stroke:#181818;stroke-width:0.5;" width="141.9512" x="7" y="207.63"/><ellipse cx="32.6875" cy="223.63" fill="#ADD1B2" rx="11" ry="11" style="stroke:#181818;stroke-width:1;"/><path d="M35.6563,229.2706 Q35.0781,229.5675 34.4375,229.7081 Q33.7969,229.8644 33.0938,229.8644 Q30.5938,229.8644 29.2656,228.2238 Q27.9531,226.5675 27.9531,223.4425 Q27.9531,220.3175 29.2656,218.6613 Q30.5938,217.005 33.0938,217.005 Q33.7969,217.005 34.4375,217.1613 Q35.0938,217.3175 35.6563,217.6144 L35.6563,220.3331 Q35.0313,219.755 34.4375,219.4894 Q33.8438,219.2081 33.2188,219.2081 Q31.875,219.2081 31.1875,220.2863 Q30.5,221.3488 30.5,223.4425 Q30.5,225.5363 31.1875,226.6144 Q31.875,227.6769 33.2188,227.6769 Q33.8438,227.6769 34.4375,227.4113 Q35.0313,227.13 35.6563,226.5519 L35.6563,229.2706 Z " fill="#000000"/><text fill="#000000" font-family="sans-serif" font-size="14" lengthAdjust="spacing" textLength="86.2012" x="49.0625" y="228.4767">RubberDuck</text><line style="stroke:#181818;stroke-width:0.5;" x1="8" x2="147.9512" y1="239.63" y2="239.63"/><rect fill="#FFFFFF" fill-opacity="0.00000" height="6" style="stroke:#C82930;stroke-width:1;" width="6" x="15" y="250.2784"/><text fill="#000000" font-family="sans-serif" font-size="14" lengthAdjust="spacing" textLength="115.9512" x="27" y="256.6251">toString : String;</text><line style="stroke:#181818;stroke-width:0.5;" x1="8" x2="147.9512" y1="263.9269" y2="263.9269"/><rect fill="#F24D5C" height="6" style="stroke:#C82930;stroke-width:1;" width="6" x="15" y="274.5753"/><text fill="#000000" font-family="sans-serif" font-size="14" lengthAdjust="spacing" textLength="79.7207" x="27" y="280.922">&lt;init&gt; : ()V</text><rect fill="#F24D5C" height="6" style="stroke:#C82930;stroke-width:1;" width="6" x="15" y="290.8722"/><text fill="#000000" font-family="sans-serif" font-size="14" lengthAdjust="spacing" textLength="76.2617" x="27" y="297.2189">quack : ()V</text></g><!--link DecoyDuck to Quackable--><g id="link_DecoyDuck_Quackable"><path codeLine="6" d="M997.83,304.93 C985.9,313.4 973.28,321.79 960.98,328.97 C911.94,357.6 859.4554,381.6149 812.9754,401.0549 " fill="#FFFFFF" fill-opacity="0.00000" id="DecoyDuck-to-Quackable" style="stroke:#181818;stroke-width:1;stroke-dasharray:7.0,7.0;"/><polygon fill="#181818" points="807.44,403.37,817.2865,403.5875,812.0528,401.4407,814.1996,396.2071,807.44,403.37" style="stroke:#181818;stroke-width:1;"/></g><!--link DuckCall to Quackable--><g id="link_DuckCall_Quackable"><path codeLine="12" d="M787.62,304.67 C773.16,334.14 757.4931,366.0635 744.0531,393.4535 " fill="#FFFFFF" fill-opacity="0.00000" id="DuckCall-to-Quackable" style="stroke:#181818;stroke-width:1;stroke-dasharray:7.0,7.0;"/><polygon fill="#181818" points="741.41,398.84,748.9656,392.5224,743.6126,394.3513,741.7837,388.9982,741.41,398.84" style="stroke:#181818;stroke-width:1;"/></g><!--link DuckSimulator to Quackable--><g id="link_DuckSimulator_Quackable"><path codeLine="19" d="M843.55,123.58 C865.8,139.57 886.05,159.3 898.98,183.19 C929.82,240.17 930.68,272.47 898.98,328.97 C879.09,364.4 847.6329,386.9101 812.7729,403.9101 " fill="#FFFFFF" fill-opacity="0.00000" id="DuckSimulator-to-Quackable" style="stroke:#181818;stroke-width:1;"/><polygon fill="#181818" points="807.38,406.54,817.2227,406.1904,811.8741,404.3484,813.7161,398.9998,807.38,406.54" style="stroke:#181818;stroke-width:1;"/></g><!--link DuckSimulator to DuckCall--><g id="link_DuckSimulator_DuckCall"><path codeLine="20" d="M748.56,123.59 C761.21,150.24 773.6069,176.3597 785.7169,201.8697 " fill="#FFFFFF" fill-opacity="0.00000" id="DuckSimulator-to-DuckCall" style="stroke:#181818;stroke-width:1;"/><polygon fill="#181818" points="788.29,207.29,788.0439,197.4442,786.1458,202.7731,780.8169,200.875,788.29,207.29" style="stroke:#181818;stroke-width:1;"/></g><!--link DuckSimulator to MallardDuck--><g id="link_DuckSimulator_MallardDuck"><path codeLine="21" d="M695.69,123.59 C683.18,150.24 670.9287,176.3482 658.9587,201.8582 " fill="#FFFFFF" fill-opacity="0.00000" id="DuckSimulator-to-MallardDuck" style="stroke:#181818;stroke-width:1;"/><polygon fill="#181818" points="656.41,207.29,663.8543,200.8415,658.5339,202.7635,656.6119,197.4432,656.41,207.29" style="stroke:#181818;stroke-width:1;"/></g><!--link DuckSimulator to GooseAdapter--><g id="link_DuckSimulator_GooseAdapter"><path codeLine="22" d="M848.55,88.32 C935.66,105.81 1052.29,135.75 1146.98,183.19 C1155.95,187.68 1159.9335,189.7487 1168.5235,195.6087 " fill="#FFFFFF" fill-opacity="0.00000" id="DuckSimulator-to-GooseAdapter" style="stroke:#181818;stroke-width:1;"/><polygon fill="#181818" points="1173.48,198.99,1168.2994,190.6137,1169.3496,196.1723,1163.7911,197.2224,1173.48,198.99" style="stroke:#181818;stroke-width:1;"/></g><!--link DuckSimulator to RedheadDuck--><g id="link_DuckSimulator_RedheadDuck"><path codeLine="23" d="M595.03,90.54 C515.75,108.33 413.43,137.75 330.98,183.19 C315.39,191.78 304.6448,199.7307 291.6548,211.4507 " fill="#FFFFFF" fill-opacity="0.00000" id="DuckSimulator-to-RedheadDuck" style="stroke:#181818;stroke-width:1;"/><polygon fill="#181818" points="287.2,215.47,296.5617,212.411,290.9123,212.1206,291.2027,206.4712,287.2,215.47" style="stroke:#181818;stroke-width:1;"/></g><!--link DuckSimulator to Goose--><g id="link_DuckSimulator_Goose"><path codeLine="24" d="M848.95,73.25 C1009.14,83.35 1271.01,110.76 1330.98,183.19 C1378.67,240.79 1353.1601,327.2053 1328.6801,383.0153 " fill="#FFFFFF" fill-opacity="0.00000" id="DuckSimulator-to-Goose" style="stroke:#181818;stroke-width:1;"/><polygon fill="#181818" points="1326.27,388.51,1333.5483,381.8748,1328.2784,383.9311,1326.2221,378.6613,1326.27,388.51" style="stroke:#181818;stroke-width:1;"/></g><!--link DuckSimulator to QuackCounter--><g id="link_DuckSimulator_QuackCounter"><path codeLine="25" d="M636.42,123.64 C607.65,142.52 575.4,163.73 545.98,183.19 C540.06,187.1 538.9611,187.825 532.8211,191.895 " fill="#FFFFFF" fill-opacity="0.00000" id="DuckSimulator-to-QuackCounter" style="stroke:#181818;stroke-width:1;"/><polygon fill="#181818" points="527.82,195.21,537.5316,193.5715,531.9875,192.4475,533.1116,186.9034,527.82,195.21" style="stroke:#181818;stroke-width:1;"/></g><!--link DuckSimulator to RubberDuck--><g id="link_DuckSimulator_RubberDuck"><path codeLine="26" d="M595.07,76.91 C478.94,89.33 304.73,117.93 166.98,183.19 C153.69,189.48 145.398,194.4717 133.568,203.6117 " fill="#FFFFFF" fill-opacity="0.00000" id="DuckSimulator-to-RubberDuck" style="stroke:#181818;stroke-width:1;"/><polygon fill="#181818" points="128.82,207.28,138.3875,204.9428,132.7766,204.223,133.4964,198.6122,128.82,207.28" style="stroke:#181818;stroke-width:1;"/></g><!--link GooseAdapter to Quackable--><g id="link_GooseAdapter_Quackable"><path codeLine="38" d="M1173.81,313.15 C1165.13,319.05 1156.08,324.51 1146.98,328.97 C1036.34,383.2 901.5588,410.9286 813.3388,424.6386 " fill="#FFFFFF" fill-opacity="0.00000" id="GooseAdapter-to-Quackable" style="stroke:#181818;stroke-width:1;stroke-dasharray:7.0,7.0;"/><polygon fill="#181818" points="807.41,425.56,816.9175,428.1305,812.3507,424.7922,815.689,420.2254,807.41,425.56" style="stroke:#181818;stroke-width:1;"/></g><!--link GooseAdapter to Goose--><g id="link_GooseAdapter_Goose"><path codeLine="39" d="M1258.56,312.84 C1267.09,337.1 1274.9917,359.599 1283.1717,382.889 " fill="#FFFFFF" fill-opacity="0.00000" id="GooseAdapter-to-Goose" style="stroke:#181818;stroke-width:1;"/><polygon fill="#181818" points="1285.16,388.55,1285.9516,378.733,1283.5031,383.8325,1278.4036,381.384,1285.16,388.55" style="stroke:#181818;stroke-width:1;"/></g><!--link MallardDuck to Quackable--><g id="link_MallardDuck_Quackable"><path codeLine="45" d="M657.59,304.67 C672.22,334.14 688.0616,366.076 701.6616,393.466 " fill="#FFFFFF" fill-opacity="0.00000" id="MallardDuck-to-Quackable" style="stroke:#181818;stroke-width:1;stroke-dasharray:7.0,7.0;"/><polygon fill="#181818" points="704.33,398.84,703.9101,389.0001,702.1064,394.3617,696.7448,392.5579,704.33,398.84" style="stroke:#181818;stroke-width:1;"/></g><!--link QuackCounter to Quackable--><g id="link_QuackCounter_Quackable"><path codeLine="58" d="M527.95,317.38 C534.03,321.33 540.08,325.22 545.98,328.97 C583.29,352.7 620.4544,375.3441 654.3544,395.6741 " fill="#FFFFFF" fill-opacity="0.00000" id="QuackCounter-to-Quackable" style="stroke:#0000FF;stroke-width:1;stroke-dasharray:7.0,7.0;"/><polygon fill="#0000FF" points="659.5,398.76,653.8388,390.7008,655.212,396.1885,649.7243,397.5616,659.5,398.76" style="stroke:#0000FF;stroke-width:1;"/></g><!--link RedheadDuck to Quackable--><g id="link_RedheadDuck_Quackable"><path codeLine="63" d="M286.69,296.5 C299.76,308.35 315.14,320.45 330.98,328.97 C429.47,381.97 550.3557,409.5195 632.6457,423.5795 " fill="#FFFFFF" fill-opacity="0.00000" id="RedheadDuck-to-Quackable" style="stroke:#181818;stroke-width:1;stroke-dasharray:7.0,7.0;"/><polygon fill="#181818" points="638.56,424.59,630.3622,419.1314,633.6314,423.7479,629.0149,427.0171,638.56,424.59" style="stroke:#181818;stroke-width:1;"/></g><!--link RubberDuck to Quackable--><g id="link_RubberDuck_Quackable"><path codeLine="69" d="M128.28,304.66 C140.23,313.92 153.47,322.69 166.98,328.97 C323.21,401.6 520.1138,424.7338 632.5638,432.3638 " fill="#FFFFFF" fill-opacity="0.00000" id="RubberDuck-to-Quackable" style="stroke:#181818;stroke-width:1;stroke-dasharray:7.0,7.0;"/><polygon fill="#181818" points="638.55,432.77,629.8414,428.1699,633.5615,432.4315,629.2999,436.1516,638.55,432.77" style="stroke:#181818;stroke-width:1;"/></g><!--SRC=[hLEnReCm4DtvYfEo90DyG8AGgY1L6QggJTMbwc3mXQ22JGqUegh_NcC7i1CYeehDldT-z-xTEIr8NKECAJ_5Cls27mzy27EMDn6iORbwR-_VaYYelpPytuYSPIfY3XllrtjfSqXI88I-h8A1qajD2NNSagAOiSAPqIgmpqjPa8OB22bMo2Yoz0GaaJL62u5ql7X9SZPKCh7QCE6GPKLw9MtofJ3VLUBrZO-1JmeWWchhn_17pcjyeAHgK8mcl28z8faW64MqwYsNx2QrJ18KDvcDwuP_rDOZPrCZjJYw9ZLLfbdN1jauv2Rq_wsnYpdkE80HPazdjhMrIBsyDVz0KWGhYwgV8rgB8rWaXTJkGX30cuRZ3bMXImcTeSvejN0gTTAmk6sGoL8D-FcWexM2TqwFpfPVDvjXqpzShdPtzl-XM_eC78rdsVOkJzfzRQprl2CSDdYsyGsSVm00]--></g></svg>