<svg xmlns="http://www.w3.org/2000/svg" xmlns:xlink="http://www.w3.org/1999/xlink" contentStyleType="text/css" data-diagram-type="CLASS" height="365px" preserveAspectRatio="none" style="width:280px;height:365px;background:#FFFFFF;" version="1.1" viewBox="0 0 280 365" width="280px" zoomAndPan="magnify"><defs/><g><!--class ChocolateBoiler--><g id="elem_ChocolateBoiler"><rect codeLine="1" fill="#FF0000" height="210.9688" id="ChocolateBoiler" rx="2.5" ry="2.5" style="stroke:#181818;stroke-width:0.5;" width="262.2568" x="7" y="147.59"/><ellipse cx="49.3208" cy="163.59" fill="#ADD1B2" rx="11" ry="11" style="stroke:#181818;stroke-width:1;"/><path d="M52.2896,169.2306 Q51.7114,169.5275 51.0708,169.6681 Q50.4302,169.8244 49.7271,169.8244 Q47.2271,169.8244 45.8989,168.1838 Q44.5864,166.5275 44.5864,163.4025 Q44.5864,160.2775 45.8989,158.6213 Q47.2271,156.965 49.7271,156.965 Q50.4302,156.965 51.0708,157.1213 Q51.7271,157.2775 52.2896,157.5744 L52.2896,160.2931 Q51.6646,159.715 51.0708,159.4494 Q50.4771,159.1681 49.8521,159.1681 Q48.5083,159.1681 47.8208,160.2463 Q47.1333,161.3088 47.1333,163.4025 Q47.1333,165.4963 47.8208,166.5744 Q48.5083,167.6369 49.8521,167.6369 Q50.4771,167.6369 51.0708,167.3713 Q51.6646,167.09 52.2896,166.5119 L52.2896,169.2306 Z " fill="#000000"/><text fill="#000000" font-family="sans-serif" font-size="14" lengthAdjust="spacing" textLength="110.3662" x="69.3921" y="168.4367">ChocolateBoiler</text><rect fill="#FFFFFF" height="15.9688" style="stroke:#181818;stroke-width:1;stroke-dasharray:2.0,2.0;" width="57.1777" x="215.0791" y="144.59"/><text fill="#000000" font-family="sans-serif" font-size="12" font-style="italic" lengthAdjust="spacing" textLength="55.1777" x="216.0791" y="156.7287">singleton</text><line style="stroke:#181818;stroke-width:0.5;" x1="8" x2="268.2568" y1="179.59" y2="179.59"/><rect fill="#FFFFFF" fill-opacity="0.00000" height="6" style="stroke:#C82930;stroke-width:1;" width="6" x="15" y="190.2384"/><text fill="#000000" font-family="sans-serif" font-size="14" lengthAdjust="spacing" textLength="68.1201" x="27" y="196.5851">empty : Z</text><rect fill="#FFFFFF" fill-opacity="0.00000" height="6" style="stroke:#C82930;stroke-width:1;" width="6" x="15" y="206.5353"/><text fill="#000000" font-family="sans-serif" font-size="14" lengthAdjust="spacing" textLength="65.9395" x="27" y="212.882">boiled : Z</text><rect fill="#FFFFFF" fill-opacity="0.00000" height="6" style="stroke:#C82930;stroke-width:1;" width="6" x="15" y="222.8322"/><text fill="#000000" font-family="sans-serif" font-size="14" lengthAdjust="spacing" textLength="236.2568" x="27" y="229.1789">uniqueInstance : ChocolateBoiler;</text><rect fill="#FFFFFF" fill-opacity="0.00000" height="6" style="stroke:#C82930;stroke-width:1;" width="6" x="15" y="239.1291"/><text fill="#000000" font-family="sans-serif" font-size="14" lengthAdjust="spacing" textLength="211.2373" x="27" y="245.4757">getInstance : ChocolateBoiler;</text><line style="stroke:#181818;stroke-width:0.5;" x1="8" x2="268.2568" y1="252.7775" y2="252.7775"/><rect fill="#F24D5C" height="6" style="stroke:#C82930;stroke-width:1;" width="6" x="15" y="263.4259"/><text fill="#000000" font-family="sans-serif" font-size="14" lengthAdjust="spacing" textLength="79.7207" x="27" y="269.7726">&lt;init&gt; : ()V</text><rect fill="#F24D5C" height="6" style="stroke:#C82930;stroke-width:1;" width="6" x="15" y="279.7228"/><text fill="#000000" font-family="sans-serif" font-size="14" lengthAdjust="spacing" textLength="50.7158" x="27" y="286.0695">fill : ()V</text><rect fill="#F24D5C" height="6" style="stroke:#C82930;stroke-width:1;" width="6" x="15" y="296.0197"/><text fill="#000000" font-family="sans-serif" font-size="14" lengthAdjust="spacing" textLength="70.1025" x="27" y="302.3664">drain : ()V</text><rect fill="#F24D5C" height="6" style="stroke:#C82930;stroke-width:1;" width="6" x="15" y="312.3166"/><text fill="#000000" font-family="sans-serif" font-size="14" lengthAdjust="spacing" textLength="59.3496" x="27" y="318.6632">boil : ()V</text><rect fill="#F24D5C" height="6" style="stroke:#C82930;stroke-width:1;" width="6" x="15" y="328.6134"/><text fill="#000000" font-family="sans-serif" font-size="14" lengthAdjust="spacing" textLength="90.46" x="27" y="334.9601">isEmpty : ()Z</text><rect fill="#F24D5C" height="6" style="stroke:#C82930;stroke-width:1;" width="6" x="15" y="344.9103"/><text fill="#000000" font-family="sans-serif" font-size="14" lengthAdjust="spacing" textLength="88.7646" x="27" y="351.257">isBoiled : ()Z</text></g><!--class ChocolateController--><g id="elem_ChocolateController"><rect codeLine="13" fill="#F1F1F1" height="80.5938" id="ChocolateController" rx="2.5" ry="2.5" style="stroke:#181818;stroke-width:0.5;" width="171.2207" x="52.52" y="7"/><ellipse cx="67.52" cy="23" fill="#ADD1B2" rx="11" ry="11" style="stroke:#181818;stroke-width:1;"/><path d="M70.4888,28.6406 Q69.9106,28.9375 69.27,29.0781 Q68.6294,29.2344 67.9263,29.2344 Q65.4263,29.2344 64.0981,27.5938 Q62.7856,25.9375 62.7856,22.8125 Q62.7856,19.6875 64.0981,18.0313 Q65.4263,16.375 67.9263,16.375 Q68.6294,16.375 69.27,16.5313 Q69.9263,16.6875 70.4888,16.9844 L70.4888,19.7031 Q69.8638,19.125 69.27,18.8594 Q68.6763,18.5781 68.0513,18.5781 Q66.7075,18.5781 66.02,19.6563 Q65.3325,20.7188 65.3325,22.8125 Q65.3325,24.9063 66.02,25.9844 Q66.7075,27.0469 68.0513,27.0469 Q68.6763,27.0469 69.27,26.7813 Q69.8638,26.5 70.4888,25.9219 L70.4888,28.6406 Z " fill="#000000"/><text fill="#000000" font-family="sans-serif" font-size="14" lengthAdjust="spacing" textLength="139.2207" x="81.52" y="27.8467">ChocolateController</text><line style="stroke:#181818;stroke-width:0.5;" x1="53.52" x2="222.7407" y1="39" y2="39"/><line style="stroke:#181818;stroke-width:0.5;" x1="53.52" x2="222.7407" y1="47" y2="47"/><rect fill="#F24D5C" height="6" style="stroke:#C82930;stroke-width:1;" width="6" x="60.52" y="57.6484"/><text fill="#000000" font-family="sans-serif" font-size="14" lengthAdjust="spacing" textLength="79.7207" x="72.52" y="63.9951">&lt;init&gt; : ()V</text><rect fill="#F24D5C" height="6" style="stroke:#C82930;stroke-width:1;" width="6" x="60.52" y="73.9453"/><text fill="#000000" font-family="sans-serif" font-size="14" lengthAdjust="spacing" textLength="110.1338" x="72.52" y="80.292">main : String;)V</text></g><!--link ChocolateController to ChocolateBoiler--><g id="link_ChocolateController_ChocolateBoiler"><path codeLine="17" d="M138.13,88.07 C138.13,105.21 138.13,120.15 138.13,141.25 " fill="#FFFFFF" fill-opacity="0.00000" id="ChocolateController-to-ChocolateBoiler" style="stroke:#181818;stroke-width:1;"/><polygon fill="#181818" points="138.13,147.25,142.13,138.25,138.13,142.25,134.13,138.25,138.13,147.25" style="stroke:#181818;stroke-width:1;"/></g><!--SRC=[XP2n3e9038Ptdk8I5nXu0I4C4WTd4mUsywZOfFJmhWp6yExU1GcHc3Z-V_-sNsj8Uw_gkpMMjC318e4hFN9789QhdODMlHALA-W7UQgzQgAunboxg97nCSA9lMWs4DpDl2A6IcIKAXJJx19r1_AduuP4Qxvr6dcLaM1Lw8yVl3HhPkEm84PdIipteRLbSPR2glcwBLq_BpkB2wyeWZSb6qHLvkEG_vhu1W00]--></g></svg>